<?xml version="1.0" encoding="iso-8859-1"?>
<!-- Uploaded to: SVG Repo, www.svgrepo.com, Generator: SVG Repo Mixer Tools -->
<svg fill="#000000" height="800px" width="800px" version="1.1" id="Layer_1" xmlns="http://www.w3.org/2000/svg" xmlns:xlink="http://www.w3.org/1999/xlink" 
	 viewBox="0 0 512 512" xml:space="preserve">
<g>
	<g>
		<path d="M481.924,363.465H30.076c-10.345,0-18.732,8.387-18.732,18.732v111.072c0,10.345,8.387,18.732,18.732,18.732h451.849
			c10.345,0,18.732-8.387,18.732-18.732V382.197C500.656,371.852,492.269,363.465,481.924,363.465z M299.96,456.464H212.04
			c-10.345,0-18.732-8.387-18.732-18.732s8.387-18.732,18.732-18.732h87.919c10.345,0,18.732,8.387,18.732,18.732
			S310.304,456.464,299.96,456.464z"/>
	</g>
</g>
<g>
	<g>
		<path d="M309.578,89.508c4.603-8.557,7.222-18.332,7.222-28.709C316.799,27.275,289.525,0,256,0s-60.799,27.275-60.799,60.799
			c0,10.389,2.624,20.174,7.235,28.736C108.804,110.661,51.138,190.83,51.138,277.279v48.722c7.633,0,153.601,0,161.555,0V161.005
			c0-21.731,17.674-39.411,39.399-39.411c0.945,0-1.582,0,7.817,0c21.724,0,39.399,17.68,39.399,39.411v164.996
			c7.963,0,153.928,0,161.555,0v-48.722C460.862,191.555,403.864,110.704,309.578,89.508z"/>
	</g>
</g>
</svg>