<svg xmlns="http://www.w3.org/2000/svg" fill="none" viewBox="0 0 574 635">
  <path fill="url(#a)" fill-opacity=".8"
    d="m61 301 42 46v124l184 164 185-164V347l41-46 21-44 9-45-9-46 40-43V75l-24-43-37-19h-41l-42 28-67-28-76-13-75 13-67 28-42-28H61L24 32 0 75v48l41 43-9 46 9 45 20 44Z" />
  <path fill="#fff"
    d="M117 100h-14l-37 53-15 39v47l10 30 31 39 31 24 22 15 45 68 37 16 26 51 9 5 25 9 26-9 8-5 26-51 38-16 45-68 22-15 31-24 30-39 11-30v-47l-16-39-36-53h-14l-6 7-67 12-22 21-50 133-10 123-16 26-16-26-9-123-50-133-22-21-67-12-6-7Z" />
  <path fill="url(#b)" fill-opacity=".8"
    d="m235 445-7-14v-41l-36-18 5-37-14-25-120-74-6-12 12-20 35-13 41 4 42 13 44 92 4 145Z" />
  <path fill="url(#c)" fill-opacity=".8"
    d="m340 445 7-14v-41l36-18-5-37 14-25 120-74 6-12-12-20-35-13-41 4-42 13-44 92-4 145Z" />
  <path fill="#000"
    d="m288 394 21 7 15 16 7 32-7 12-15 16-21 6-22-6-15-16-6-12 6-32 15-16 22-7ZM73 45l37 13 20 32-7 37-30 24H53l-30-24-7-37 20-32 37-13Zm425 0 37 13 20 32-7 37-30 24h-40l-30-24-7-37 20-32 37-13ZM178 216l13-2 15 9 13 15 5 18-3 15-10 7-15-3-15-13-9-17-1-17 7-12Zm220 0-14-2-15 9-12 15-6 18 3 15 11 7 15-3 14-13 9-17 2-17-7-12Zm-51 173v7l117-44v-10l-117 47Zm-119 0v7l-117-44v-10l117 47Z" />
  <defs>
    <linearGradient id="a" x1="287" x2="287" y1="0" y2="635" gradientUnits="userSpaceOnUse">
      <stop stop-color="#FF003F" />
      <stop offset="1" stop-color="#FF4B78" stop-opacity="0" />
    </linearGradient>
    <linearGradient id="b" x1="145.8" x2="145.8" y1="191" y2="445" gradientUnits="userSpaceOnUse">
      <stop offset=".5" stop-color="#FF4B78" />
      <stop offset="1" stop-color="#FF4B78" stop-opacity="0" />
    </linearGradient>
    <linearGradient id="c" x1="428.8" x2="428.8" y1="191" y2="444.5" gradientUnits="userSpaceOnUse">
      <stop offset=".5" stop-color="#FF4B78" />
      <stop offset="1" stop-color="#FF4B78" stop-opacity="0" />
    </linearGradient>
  </defs>
</svg>
